<svg width="24" height="24" fill="none" xmlns="http://www.w3.org/2000/svg"><circle cx="12" cy="12" r="11.5" stroke="#fff"/><path d="M14.198 15.66c0-.498-.158-.908-.474-1.23-.317-.328-.844-.621-1.582-.88-.739-.263-1.313-.506-1.723-.729C9.054 12.09 8.37 11.005 8.37 9.57c0-.972.296-1.772.888-2.4.592-.626 1.394-.998 2.408-1.115V4.138h1.406V6.07c1.02.147 1.808.58 2.364 1.301.557.715.836 1.647.836 2.795h-2.127c0-.738-.168-1.318-.502-1.74-.328-.428-.776-.642-1.344-.642-.563 0-1.002.152-1.319.457-.316.305-.474.741-.474 1.31 0 .51.155.92.466 1.23.316.305.85.595 1.6.87.75.276 1.338.53 1.766.765.428.234.788.504 1.08.809.294.298.52.644.678 1.037.158.392.237.852.237 1.38 0 .99-.305 1.793-.914 2.408-.604.615-1.447.978-2.531 1.09v1.714H11.49v-1.706c-1.16-.129-2.053-.544-2.68-1.248-.622-.703-.932-1.634-.932-2.795h2.136c0 .739.184 1.31.553 1.714.375.405.903.607 1.582.607.668 0 1.175-.161 1.52-.484.353-.322.528-.75.528-1.283z" fill="#fff"/></svg>