<svg width="59" height="42" fill="none" xmlns="http://www.w3.org/2000/svg"><path d="M8.648 18.43h8.666V23H1.16v-3.305L9.598 8.551H1.529V3.98h15.592v3.2L8.648 18.43zm10.512-5.115c0-1.899.37-3.586 1.108-5.063.738-1.488 1.798-2.63 3.181-3.428 1.383-.797 3.006-1.195 4.87-1.195 2.847 0 5.091.885 6.732 2.654 1.64 1.758 2.46 4.154 2.46 7.19v.21c0 2.965-.826 5.32-2.478 7.067-1.64 1.734-3.867 2.602-6.68 2.602-2.707 0-4.88-.809-6.521-2.426-1.64-1.63-2.525-3.832-2.654-6.61l-.018-1.002zm5.924.369c0 1.757.275 3.046.826 3.867.55.82 1.365 1.23 2.444 1.23 2.109 0 3.187-1.623 3.234-4.869v-.598c0-3.41-1.09-5.115-3.27-5.115-1.98 0-3.052 1.47-3.216 4.412l-.018 1.073zm14.291-.37c0-1.898.37-3.585 1.107-5.062.739-1.488 1.8-2.63 3.182-3.428 1.383-.797 3.006-1.195 4.87-1.195 2.847 0 5.091.885 6.732 2.654 1.64 1.758 2.46 4.154 2.46 7.19v.21c0 2.965-.826 5.32-2.478 7.067-1.64 1.734-3.867 2.602-6.68 2.602-2.707 0-4.88-.809-6.521-2.426-1.64-1.63-2.525-3.832-2.654-6.61l-.018-1.002zm5.924.37c0 1.757.275 3.046.826 3.867.55.82 1.365 1.23 2.443 1.23 2.11 0 3.188-1.623 3.235-4.869v-.598c0-3.41-1.09-5.115-3.27-5.115-1.98 0-3.053 1.47-3.217 4.412l-.017 1.073zM1.457 35.157c0-.949.185-1.793.554-2.531.369-.744.9-1.315 1.59-1.714.692-.398 1.503-.598 2.435-.598 1.424 0 2.546.443 3.366 1.328.82.878 1.23 2.077 1.23 3.594v.106c0 1.482-.412 2.66-1.238 3.533-.82.867-1.934 1.3-3.34 1.3-1.354 0-2.44-.403-3.261-1.212-.82-.815-1.263-1.916-1.327-3.305l-.009-.5zm2.962.185c0 .879.138 1.523.413 1.933.275.41.683.616 1.222.616 1.054 0 1.593-.812 1.617-2.435v-.299c0-1.705-.545-2.557-1.635-2.557-.99 0-1.526.735-1.608 2.206l-.01.536zm11.68-4.852l.096 1.116c.656-.86 1.561-1.292 2.716-1.292.99 0 1.728.296 2.214.888.493.592.748 1.483.765 2.672V40h-2.97v-6.003c0-.48-.097-.832-.29-1.055-.194-.228-.546-.342-1.055-.342-.58 0-1.011.228-1.292.685V40H13.32v-9.51h2.777zM28.102 40h-2.971V26.5h2.97V40zm6.397 0h-2.971v-9.51h2.97V40zm-3.147-11.962c0-.422.152-.768.457-1.037.305-.27.7-.404 1.187-.404.486 0 .882.134 1.186.404.305.27.457.615.457 1.037 0 .422-.152.768-.457 1.037-.304.27-.7.405-1.186.405-.487 0-.882-.135-1.187-.405a1.322 1.322 0 01-.457-1.037zm9.14 2.452l.096 1.116c.656-.86 1.562-1.292 2.716-1.292.99 0 1.728.296 2.215.888.492.592.747 1.483.764 2.672V40h-2.97v-6.003c0-.48-.097-.832-.29-1.055-.194-.228-.545-.342-1.055-.342-.58 0-1.01.228-1.292.685V40h-2.962v-9.51h2.777zm13.48 9.686c-1.459 0-2.64-.434-3.542-1.301-.902-.873-1.353-2.007-1.353-3.401v-.246c0-.973.179-1.831.536-2.576a3.955 3.955 0 011.582-1.722c.692-.41 1.512-.616 2.461-.616 1.336 0 2.39.416 3.164 1.248.773.827 1.16 1.981 1.16 3.463v1.152h-5.888c.105.533.336.952.694 1.257.357.304.82.457 1.389.457.937 0 1.67-.328 2.197-.985l1.353 1.6c-.369.51-.893.917-1.573 1.221-.674.3-1.4.449-2.18.449zM53.64 32.6c-.867 0-1.382.574-1.546 1.722h2.988v-.228c.012-.475-.109-.841-.36-1.099-.252-.264-.613-.395-1.081-.395z" fill="#333"/></svg>