<svg width="80" height="42" fill="none" xmlns="http://www.w3.org/2000/svg"><path fill="#2196F3" d="M0 0h80v20H0z"/><path fill="#fff" d="M0 19h80v20H0z"/><g filter="url(#filter0_d)"><path d="M21.08 5.18l2.256 5.994 2.25-5.994h1.757V13H25.99v-2.578l.134-3.448L23.814 13h-.972l-2.304-6.021.134 3.443V13H19.32V5.18h1.762zm13.599 6h-3.03L31.016 13h-1.413l2.954-7.82h1.22L36.735 13h-1.418l-.64-1.82zm-2.648-1.096h2.266l-1.133-3.245-1.133 3.245zm11.852-3.809h-2.438V13h-1.348V6.275H37.68V5.18h6.203v1.095zm8.098 4.18c-.078.833-.386 1.485-.923 1.954-.538.466-1.252.698-2.143.698-.623 0-1.173-.146-1.65-.44a2.932 2.932 0 01-1.095-1.262c-.258-.544-.392-1.176-.403-1.896v-.73c0-.738.13-1.388.392-1.95a2.961 2.961 0 011.123-1.3c.49-.305 1.056-.457 1.697-.457.863 0 1.558.235 2.084.704s.832 1.131.918 1.987h-1.353c-.065-.562-.23-.967-.494-1.214-.262-.25-.647-.376-1.155-.376-.59 0-1.046.217-1.364.65-.315.43-.477 1.062-.484 1.896v.693c0 .845.15 1.49.452 1.934.304.444.748.666 1.332.666.533 0 .934-.12 1.203-.36.268-.24.438-.64.51-1.198h1.353zM60.66 13h-1.354V9.525H55.81V13h-1.36V5.18h1.36v3.255h3.496V5.18h1.354V13z" fill="#fff"/></g><g filter="url(#filter1_d)"><path d="M21.08 25.18l2.256 5.994 2.25-5.994h1.757V33H25.99v-2.578l.134-3.448L23.814 33h-.972l-2.304-6.021.134 3.443V33H19.32v-7.82h1.762zm13.599 6h-3.03L31.016 33h-1.413l2.954-7.82h1.22L36.735 33h-1.418l-.64-1.82zm-2.648-1.096h2.266l-1.133-3.245-1.133 3.245zm11.852-3.809h-2.438V33h-1.348v-6.725H37.68V25.18h6.203v1.095zm8.098 4.18c-.078.833-.386 1.485-.923 1.954-.538.466-1.252.698-2.143.698-.623 0-1.173-.146-1.65-.44a2.932 2.932 0 01-1.095-1.262c-.258-.545-.392-1.177-.403-1.896v-.73c0-.738.13-1.388.392-1.95a2.961 2.961 0 011.123-1.3c.49-.305 1.056-.457 1.697-.457.863 0 1.558.235 2.084.704s.832 1.131.918 1.987h-1.353c-.065-.562-.23-.967-.494-1.214-.262-.25-.647-.376-1.155-.376-.59 0-1.046.217-1.364.65-.315.43-.477 1.062-.484 1.896v.693c0 .845.15 1.49.452 1.934.304.444.748.666 1.332.666.533 0 .934-.12 1.203-.36.268-.24.438-.64.51-1.198h1.353zM60.66 33h-1.354v-3.475H55.81V33h-1.36v-7.82h1.36v3.255h3.496V25.18h1.354V33z" fill="#2196F3"/></g><defs><filter id="filter0_d" x="15.319" y="5.072" width="49.341" height="16.035" filterUnits="userSpaceOnUse" color-interpolation-filters="sRGB"><feFlood flood-opacity="0" result="BackgroundImageFix"/><feColorMatrix in="SourceAlpha" values="0 0 0 0 0 0 0 0 0 0 0 0 0 0 0 0 0 0 127 0"/><feOffset dy="4"/><feGaussianBlur stdDeviation="2"/><feColorMatrix values="0 0 0 0 0 0 0 0 0 0 0 0 0 0 0 0 0 0 0.25 0"/><feBlend in2="BackgroundImageFix" result="effect1_dropShadow"/><feBlend in="SourceGraphic" in2="effect1_dropShadow" result="shape"/></filter><filter id="filter1_d" x="15.319" y="25.072" width="49.341" height="16.035" filterUnits="userSpaceOnUse" color-interpolation-filters="sRGB"><feFlood flood-opacity="0" result="BackgroundImageFix"/><feColorMatrix in="SourceAlpha" values="0 0 0 0 0 0 0 0 0 0 0 0 0 0 0 0 0 0 127 0"/><feOffset dy="4"/><feGaussianBlur stdDeviation="2"/><feColorMatrix values="0 0 0 0 0 0 0 0 0 0 0 0 0 0 0 0 0 0 0.25 0"/><feBlend in2="BackgroundImageFix" result="effect1_dropShadow"/><feBlend in="SourceGraphic" in2="effect1_dropShadow" result="shape"/></filter></defs></svg>