<svg width="20" height="20" fill="none" xmlns="http://www.w3.org/2000/svg"><path d="M20 10c0 5.523-4.477 10-10 10S0 15.523 0 10 4.477 0 10 0s10 4.477 10 10z" fill="#fff"/><path d="M8.884 12.396c.012-.697.09-1.248.237-1.652.147-.404.445-.852.897-1.345l1.15-1.186c.493-.557.74-1.154.74-1.793 0-.615-.162-1.096-.484-1.441-.322-.352-.791-.528-1.406-.528-.598 0-1.079.158-1.442.475-.363.316-.545.741-.545 1.274H6.405c.012-.949.349-1.714 1.011-2.294.668-.586 1.535-.879 2.602-.879 1.107 0 1.968.3 2.584.897.62.592.931 1.406.931 2.443 0 1.026-.474 2.036-1.424 3.032l-.958.95c-.427.474-.641 1.157-.641 2.047H8.884zm-.07 2.787c0-.264.079-.484.237-.66.164-.181.404-.272.72-.272.317 0 .557.09.721.272a.929.929 0 01.246.66.929.929 0 01-.246.659c-.164.17-.404.255-.72.255-.317 0-.557-.085-.721-.255a.949.949 0 01-.238-.66z" fill="#2196F3"/></svg>