<svg width="40" height="40" fill="none" xmlns="http://www.w3.org/2000/svg"><mask id="a" maskUnits="userSpaceOnUse" x="11" y="11" width="18" height="18"><path fill-rule="evenodd" clip-rule="evenodd" d="M13 11h14a2 2 0 012 2v14a2 2 0 01-2 2H13a2 2 0 01-2-2V13a2 2 0 012-2zm0 9l5 5 9-9-1.41-1.42L18 22.17l-3.59-3.58L13 20z" fill="#fff"/></mask><g mask="url(#a)"><path fill="#018786" d="M8 8h24v24H8z"/></g><path fill-rule="evenodd" clip-rule="evenodd" d="M20 40c11.046 0 20-8.954 20-20S31.046 0 20 0 0 8.954 0 20s8.954 20 20 20z" fill="#018786" fill-opacity=".08"/></svg>